<svg width="28" height="26" viewBox="0 0 28 26" fill="none" xmlns="http://www.w3.org/2000/svg">
<defs>
<clipPath id="clip0_22_57">
<rect width="27.7333" height="26" fill="white"/>
</clipPath>
</defs>
<g clip-path="url(#clip0_22_57)">
<path d="M27.0905 0L15.1904 8.80522L17.4034 3.61606L27.0905 0Z" fill="#E17726"/>
<path d="M0.670686 0.0104065L10.332 3.61671L12.4332 8.87391L0.670686 0.0104065ZM22.3015 18.7263L27.5612 18.8264L25.723 25.0709L19.305 23.3039L22.3015 18.7263ZM5.43172 18.7263L8.41706 23.3039L2.0099 25.071L0.182861 18.8264L5.43172 18.7263Z" fill="#E27625"/>
<path d="M12.1475 7.5348L12.3624 14.4771L5.93054 14.1845L7.76008 11.4244L7.78326 11.3979L12.1475 7.5348ZM15.5191 7.45734L19.95 11.3981L19.9729 11.4245L21.8025 14.1846L15.372 14.4771L15.5191 7.45734ZM8.6054 18.7464L12.1174 21.4828L8.03773 23.4524L8.6054 18.7464ZM19.1285 18.746L19.6843 23.4525L15.6161 21.4826L19.1285 18.746Z" fill="#E27625"/>
<path d="M15.7059 21.2249L19.8342 23.2239L15.9941 25.0488L16.0339 23.8427L15.7059 21.2249ZM12.0262 21.2258L11.711 23.8229L11.7369 25.0474L7.88782 23.2239L12.0262 21.2258Z" fill="#D5BFB2"/>
<path d="M10.834 15.3832L11.9128 17.6504L8.23999 16.5745L10.834 15.3832ZM16.8991 15.3834L19.5054 16.5745L15.8205 17.6501L16.8991 15.3834Z" fill="#233447"/>
<path d="M8.88609 18.7232L8.29243 23.6026L5.11035 18.83L8.88609 18.7232ZM18.8473 18.7234L22.6232 18.83L19.4292 23.6028L18.8473 18.7234ZM21.8954 13.9086L19.1475 16.7091L17.0289 15.7409L16.0145 17.8734L15.3496 14.2064L21.8954 13.9086ZM5.8364 13.9086L12.3835 14.2064L11.7185 17.8734L10.7039 15.7413L8.59652 16.7092L5.8364 13.9086Z" fill="#CC6228"/>
<path d="M5.65137 13.3339L8.76032 16.4887L8.868 19.6031L5.65137 13.3339ZM22.0852 13.3282L18.8627 19.6087L18.9841 16.4887L22.0852 13.3282ZM12.2316 13.5261L12.3568 14.3136L12.666 16.2757L12.4672 22.3017L11.5274 17.4608L11.527 17.4108L12.2316 13.5261ZM15.5002 13.5151L16.2066 17.4108L16.2063 17.4608L15.2641 22.3138L15.2268 21.1L15.0798 16.2399L15.5002 13.5151Z" fill="#E27525"/>
<path d="M19.2604 16.3633L19.1552 19.0693L15.8755 21.6245L15.2125 21.1561L15.9557 17.3281L19.2604 16.3633ZM8.48438 16.3633L11.7776 17.3281L12.5208 21.1561L11.8578 21.6245L8.57797 19.069L8.48438 16.3633Z" fill="#F5841F"/>
<path d="M7.26025 22.6263L11.4562 24.6144L11.4385 23.7654L11.7896 23.4572H15.9424L16.3062 23.7643L16.2793 24.6127L20.4488 22.6313L18.4199 24.3078L15.9667 25.9927H11.7559L9.30429 24.3009L7.26025 22.6263Z" fill="#C0AC9D"/>
<path d="M15.4054 20.9602L15.9987 21.3794L16.3463 24.1531L15.8432 23.7284H11.8916L11.3981 24.1617L11.7343 21.3796L12.3278 20.9602H15.4054Z" fill="#161616"/>
<path d="M26.3048 0.243744L27.7333 4.52909L26.8412 8.86209L27.4765 9.35209L26.6168 10.0079L27.263 10.5069L26.4074 11.2859L26.9326 11.6663L25.5388 13.2941L19.8221 11.6296L19.7726 11.603L15.653 8.12792L26.3048 0.243744ZM1.42848 0.243744L12.0805 8.12792L7.96077 11.603L7.91126 11.6296L2.19451 13.2941L0.800692 11.6663L1.32546 11.2863L0.470492 10.5069L1.11529 10.0085L0.242775 9.35079L0.901983 8.86047L0 4.5293L1.42848 0.243744Z" fill="#763E1A"/>
<path d="M19.5424 11.2656L25.5997 13.0291L27.5675 19.0943H22.3758L18.7986 19.1394L21.4001 14.0685L19.5424 11.2656ZM8.19081 11.2656L6.33279 14.0685L8.93463 19.1394L5.35909 19.0943H0.176636L2.13346 13.0292L8.19081 11.2656ZM17.6999 3.58713L16.0057 8.16302L15.6461 14.3445L15.5085 16.2821L15.4976 21.2316H12.2355L12.2249 16.2914L12.0869 14.3429L11.7272 8.16302L10.0332 3.58713H17.6999Z" fill="#F5841F"/>
</g>
</svg>
